<mxfile host="app.diagrams.net" modified="2022-04-25T02:24:52.500Z" agent="5.0 (Macintosh; Intel Mac OS X 10_15_7) AppleWebKit/537.36 (KHTML, like Gecko) Chrome/100.0.4896.127 Safari/537.36" etag="Kcw5CxTwqRD-jM2kZrwa" version="17.4.6" type="github">
  <diagram id="FC8rwYeyVndhtEH0XKV2" name="Page-1">
    <mxGraphModel dx="1266" dy="841" grid="1" gridSize="10" guides="1" tooltips="1" connect="1" arrows="1" fold="1" page="1" pageScale="1" pageWidth="827" pageHeight="1169" math="0" shadow="0">
      <root>
        <mxCell id="0" />
        <mxCell id="1" parent="0" />
        <mxCell id="85pWiXQKtu7gLdS7Zu_Z-138" style="edgeStyle=orthogonalEdgeStyle;rounded=0;orthogonalLoop=1;jettySize=auto;html=1;entryX=0.5;entryY=0;entryDx=0;entryDy=0;" edge="1" parent="1" source="85pWiXQKtu7gLdS7Zu_Z-2" target="85pWiXQKtu7gLdS7Zu_Z-4">
          <mxGeometry relative="1" as="geometry" />
        </mxCell>
        <mxCell id="85pWiXQKtu7gLdS7Zu_Z-2" value="开始" style="rounded=1;whiteSpace=wrap;html=1;" vertex="1" parent="1">
          <mxGeometry x="387.92" width="80" height="40" as="geometry" />
        </mxCell>
        <mxCell id="85pWiXQKtu7gLdS7Zu_Z-116" style="edgeStyle=orthogonalEdgeStyle;rounded=0;orthogonalLoop=1;jettySize=auto;html=1;" edge="1" parent="1" source="85pWiXQKtu7gLdS7Zu_Z-4" target="85pWiXQKtu7gLdS7Zu_Z-5">
          <mxGeometry relative="1" as="geometry" />
        </mxCell>
        <mxCell id="85pWiXQKtu7gLdS7Zu_Z-4" value="用户登录" style="rounded=0;whiteSpace=wrap;html=1;" vertex="1" parent="1">
          <mxGeometry x="387.92" y="70" width="80" height="40" as="geometry" />
        </mxCell>
        <mxCell id="85pWiXQKtu7gLdS7Zu_Z-117" style="edgeStyle=orthogonalEdgeStyle;rounded=0;orthogonalLoop=1;jettySize=auto;html=1;exitX=0.5;exitY=1;exitDx=0;exitDy=0;entryX=0.5;entryY=0;entryDx=0;entryDy=0;" edge="1" parent="1" source="85pWiXQKtu7gLdS7Zu_Z-5" target="85pWiXQKtu7gLdS7Zu_Z-6">
          <mxGeometry relative="1" as="geometry" />
        </mxCell>
        <mxCell id="85pWiXQKtu7gLdS7Zu_Z-119" value="YES" style="edgeLabel;html=1;align=center;verticalAlign=middle;resizable=0;points=[];" vertex="1" connectable="0" parent="85pWiXQKtu7gLdS7Zu_Z-117">
          <mxGeometry x="-0.4707" y="-1" relative="1" as="geometry">
            <mxPoint y="3" as="offset" />
          </mxGeometry>
        </mxCell>
        <mxCell id="85pWiXQKtu7gLdS7Zu_Z-130" style="edgeStyle=orthogonalEdgeStyle;rounded=0;orthogonalLoop=1;jettySize=auto;html=1;entryX=1;entryY=0.5;entryDx=0;entryDy=0;exitX=1;exitY=0.5;exitDx=0;exitDy=0;" edge="1" parent="1" source="85pWiXQKtu7gLdS7Zu_Z-5" target="85pWiXQKtu7gLdS7Zu_Z-118">
          <mxGeometry relative="1" as="geometry">
            <Array as="points">
              <mxPoint x="818.2" y="155" />
              <mxPoint x="818.2" y="830" />
            </Array>
          </mxGeometry>
        </mxCell>
        <mxCell id="85pWiXQKtu7gLdS7Zu_Z-5" value="是否合法？" style="rhombus;whiteSpace=wrap;html=1;" vertex="1" parent="1">
          <mxGeometry x="382.92" y="130" width="90" height="50" as="geometry" />
        </mxCell>
        <mxCell id="85pWiXQKtu7gLdS7Zu_Z-121" style="edgeStyle=orthogonalEdgeStyle;rounded=0;orthogonalLoop=1;jettySize=auto;html=1;entryX=0.5;entryY=0;entryDx=0;entryDy=0;" edge="1" parent="1" source="85pWiXQKtu7gLdS7Zu_Z-6" target="85pWiXQKtu7gLdS7Zu_Z-11">
          <mxGeometry relative="1" as="geometry" />
        </mxCell>
        <mxCell id="85pWiXQKtu7gLdS7Zu_Z-122" style="edgeStyle=orthogonalEdgeStyle;rounded=0;orthogonalLoop=1;jettySize=auto;html=1;" edge="1" parent="1" source="85pWiXQKtu7gLdS7Zu_Z-6" target="85pWiXQKtu7gLdS7Zu_Z-7">
          <mxGeometry relative="1" as="geometry">
            <Array as="points">
              <mxPoint x="427.92" y="290" />
              <mxPoint x="77.92" y="290" />
            </Array>
          </mxGeometry>
        </mxCell>
        <mxCell id="85pWiXQKtu7gLdS7Zu_Z-123" style="edgeStyle=orthogonalEdgeStyle;rounded=0;orthogonalLoop=1;jettySize=auto;html=1;entryX=0.5;entryY=0;entryDx=0;entryDy=0;" edge="1" parent="1" source="85pWiXQKtu7gLdS7Zu_Z-6" target="85pWiXQKtu7gLdS7Zu_Z-10">
          <mxGeometry relative="1" as="geometry">
            <Array as="points">
              <mxPoint x="427.92" y="290" />
              <mxPoint x="247.92000000000002" y="290" />
            </Array>
          </mxGeometry>
        </mxCell>
        <mxCell id="85pWiXQKtu7gLdS7Zu_Z-124" style="edgeStyle=orthogonalEdgeStyle;rounded=0;orthogonalLoop=1;jettySize=auto;html=1;entryX=0.5;entryY=0;entryDx=0;entryDy=0;" edge="1" parent="1" source="85pWiXQKtu7gLdS7Zu_Z-6" target="85pWiXQKtu7gLdS7Zu_Z-12">
          <mxGeometry relative="1" as="geometry">
            <Array as="points">
              <mxPoint x="427.92" y="290" />
              <mxPoint x="607.9200000000001" y="290" />
            </Array>
          </mxGeometry>
        </mxCell>
        <mxCell id="85pWiXQKtu7gLdS7Zu_Z-136" style="edgeStyle=orthogonalEdgeStyle;rounded=0;orthogonalLoop=1;jettySize=auto;html=1;entryX=0.5;entryY=0;entryDx=0;entryDy=0;" edge="1" parent="1" source="85pWiXQKtu7gLdS7Zu_Z-6" target="85pWiXQKtu7gLdS7Zu_Z-120">
          <mxGeometry relative="1" as="geometry">
            <Array as="points">
              <mxPoint x="428.2" y="290" />
              <mxPoint x="758.2" y="290" />
            </Array>
          </mxGeometry>
        </mxCell>
        <mxCell id="85pWiXQKtu7gLdS7Zu_Z-6" value="选择" style="rhombus;whiteSpace=wrap;html=1;" vertex="1" parent="1">
          <mxGeometry x="382.92" y="220" width="90" height="50" as="geometry" />
        </mxCell>
        <mxCell id="85pWiXQKtu7gLdS7Zu_Z-23" style="edgeStyle=orthogonalEdgeStyle;rounded=0;orthogonalLoop=1;jettySize=auto;html=1;entryX=0.5;entryY=0;entryDx=0;entryDy=0;" edge="1" parent="1" source="85pWiXQKtu7gLdS7Zu_Z-7" target="85pWiXQKtu7gLdS7Zu_Z-19">
          <mxGeometry relative="1" as="geometry" />
        </mxCell>
        <mxCell id="85pWiXQKtu7gLdS7Zu_Z-7" value="修改信息" style="rounded=0;whiteSpace=wrap;html=1;" vertex="1" parent="1">
          <mxGeometry x="37.92" y="330" width="80" height="40" as="geometry" />
        </mxCell>
        <mxCell id="85pWiXQKtu7gLdS7Zu_Z-37" style="edgeStyle=orthogonalEdgeStyle;rounded=0;orthogonalLoop=1;jettySize=auto;html=1;exitX=0.5;exitY=1;exitDx=0;exitDy=0;" edge="1" parent="1" source="85pWiXQKtu7gLdS7Zu_Z-10" target="85pWiXQKtu7gLdS7Zu_Z-13">
          <mxGeometry relative="1" as="geometry" />
        </mxCell>
        <mxCell id="85pWiXQKtu7gLdS7Zu_Z-10" value="管理学生" style="rounded=0;whiteSpace=wrap;html=1;" vertex="1" parent="1">
          <mxGeometry x="207.92000000000002" y="330" width="80" height="40" as="geometry" />
        </mxCell>
        <mxCell id="85pWiXQKtu7gLdS7Zu_Z-60" style="edgeStyle=orthogonalEdgeStyle;rounded=0;orthogonalLoop=1;jettySize=auto;html=1;" edge="1" parent="1" source="85pWiXQKtu7gLdS7Zu_Z-11">
          <mxGeometry relative="1" as="geometry">
            <mxPoint x="427.92" y="400" as="targetPoint" />
          </mxGeometry>
        </mxCell>
        <mxCell id="85pWiXQKtu7gLdS7Zu_Z-11" value="在线教学" style="rounded=0;whiteSpace=wrap;html=1;" vertex="1" parent="1">
          <mxGeometry x="387.92" y="330" width="80" height="40" as="geometry" />
        </mxCell>
        <mxCell id="85pWiXQKtu7gLdS7Zu_Z-99" style="edgeStyle=orthogonalEdgeStyle;rounded=0;orthogonalLoop=1;jettySize=auto;html=1;entryX=0.5;entryY=0;entryDx=0;entryDy=0;" edge="1" parent="1" source="85pWiXQKtu7gLdS7Zu_Z-12" target="85pWiXQKtu7gLdS7Zu_Z-86">
          <mxGeometry relative="1" as="geometry" />
        </mxCell>
        <mxCell id="85pWiXQKtu7gLdS7Zu_Z-12" value="教学历史" style="rounded=0;whiteSpace=wrap;html=1;" vertex="1" parent="1">
          <mxGeometry x="567.9200000000001" y="330" width="80" height="40" as="geometry" />
        </mxCell>
        <mxCell id="85pWiXQKtu7gLdS7Zu_Z-38" style="edgeStyle=orthogonalEdgeStyle;rounded=0;orthogonalLoop=1;jettySize=auto;html=1;exitX=0.5;exitY=1;exitDx=0;exitDy=0;" edge="1" parent="1" source="85pWiXQKtu7gLdS7Zu_Z-13" target="85pWiXQKtu7gLdS7Zu_Z-14">
          <mxGeometry relative="1" as="geometry" />
        </mxCell>
        <mxCell id="85pWiXQKtu7gLdS7Zu_Z-39" style="edgeStyle=orthogonalEdgeStyle;rounded=0;orthogonalLoop=1;jettySize=auto;html=1;exitX=0.5;exitY=1;exitDx=0;exitDy=0;entryX=0.5;entryY=0;entryDx=0;entryDy=0;" edge="1" parent="1" source="85pWiXQKtu7gLdS7Zu_Z-13" target="85pWiXQKtu7gLdS7Zu_Z-16">
          <mxGeometry relative="1" as="geometry" />
        </mxCell>
        <mxCell id="85pWiXQKtu7gLdS7Zu_Z-40" style="edgeStyle=orthogonalEdgeStyle;rounded=0;orthogonalLoop=1;jettySize=auto;html=1;exitX=0.5;exitY=1;exitDx=0;exitDy=0;entryX=0.5;entryY=0;entryDx=0;entryDy=0;" edge="1" parent="1" source="85pWiXQKtu7gLdS7Zu_Z-13" target="85pWiXQKtu7gLdS7Zu_Z-17">
          <mxGeometry relative="1" as="geometry" />
        </mxCell>
        <mxCell id="85pWiXQKtu7gLdS7Zu_Z-48" value="YES" style="edgeLabel;html=1;align=center;verticalAlign=middle;resizable=0;points=[];" vertex="1" connectable="0" parent="85pWiXQKtu7gLdS7Zu_Z-40">
          <mxGeometry x="-0.7143" y="1" relative="1" as="geometry">
            <mxPoint as="offset" />
          </mxGeometry>
        </mxCell>
        <mxCell id="85pWiXQKtu7gLdS7Zu_Z-55" style="edgeStyle=orthogonalEdgeStyle;rounded=0;orthogonalLoop=1;jettySize=auto;html=1;exitX=1;exitY=0.5;exitDx=0;exitDy=0;entryX=1;entryY=0.5;entryDx=0;entryDy=0;" edge="1" parent="1" source="85pWiXQKtu7gLdS7Zu_Z-13" target="85pWiXQKtu7gLdS7Zu_Z-31">
          <mxGeometry relative="1" as="geometry">
            <Array as="points">
              <mxPoint x="307.92" y="430" />
              <mxPoint x="307.92" y="725" />
            </Array>
          </mxGeometry>
        </mxCell>
        <mxCell id="85pWiXQKtu7gLdS7Zu_Z-56" value="NO" style="edgeLabel;html=1;align=center;verticalAlign=middle;resizable=0;points=[];" vertex="1" connectable="0" parent="85pWiXQKtu7gLdS7Zu_Z-55">
          <mxGeometry x="-0.493" y="2" relative="1" as="geometry">
            <mxPoint as="offset" />
          </mxGeometry>
        </mxCell>
        <mxCell id="85pWiXQKtu7gLdS7Zu_Z-13" value="选择管理方式" style="rhombus;whiteSpace=wrap;html=1;" vertex="1" parent="1">
          <mxGeometry x="207.92000000000002" y="400" width="80" height="60" as="geometry" />
        </mxCell>
        <mxCell id="85pWiXQKtu7gLdS7Zu_Z-41" style="edgeStyle=orthogonalEdgeStyle;rounded=0;orthogonalLoop=1;jettySize=auto;html=1;exitX=0.5;exitY=1;exitDx=0;exitDy=0;entryX=0.5;entryY=0;entryDx=0;entryDy=0;" edge="1" parent="1" source="85pWiXQKtu7gLdS7Zu_Z-14" target="85pWiXQKtu7gLdS7Zu_Z-35">
          <mxGeometry relative="1" as="geometry">
            <Array as="points">
              <mxPoint x="217.92000000000002" y="550" />
              <mxPoint x="247.92000000000002" y="550" />
            </Array>
          </mxGeometry>
        </mxCell>
        <mxCell id="85pWiXQKtu7gLdS7Zu_Z-14" value="查询" style="rounded=0;whiteSpace=wrap;html=1;" vertex="1" parent="1">
          <mxGeometry x="202.92000000000002" y="500" width="30" height="30" as="geometry" />
        </mxCell>
        <mxCell id="85pWiXQKtu7gLdS7Zu_Z-42" style="edgeStyle=orthogonalEdgeStyle;rounded=0;orthogonalLoop=1;jettySize=auto;html=1;exitX=0.5;exitY=1;exitDx=0;exitDy=0;entryX=0.5;entryY=0;entryDx=0;entryDy=0;" edge="1" parent="1" source="85pWiXQKtu7gLdS7Zu_Z-16" target="85pWiXQKtu7gLdS7Zu_Z-35">
          <mxGeometry relative="1" as="geometry" />
        </mxCell>
        <mxCell id="85pWiXQKtu7gLdS7Zu_Z-16" value="增加" style="rounded=0;whiteSpace=wrap;html=1;" vertex="1" parent="1">
          <mxGeometry x="232.92000000000002" y="500" width="30" height="30" as="geometry" />
        </mxCell>
        <mxCell id="85pWiXQKtu7gLdS7Zu_Z-43" style="edgeStyle=orthogonalEdgeStyle;rounded=0;orthogonalLoop=1;jettySize=auto;html=1;exitX=0.5;exitY=1;exitDx=0;exitDy=0;entryX=0.5;entryY=0;entryDx=0;entryDy=0;" edge="1" parent="1" source="85pWiXQKtu7gLdS7Zu_Z-17" target="85pWiXQKtu7gLdS7Zu_Z-35">
          <mxGeometry relative="1" as="geometry">
            <Array as="points">
              <mxPoint x="277.92" y="550" />
              <mxPoint x="247.92000000000002" y="550" />
            </Array>
          </mxGeometry>
        </mxCell>
        <mxCell id="85pWiXQKtu7gLdS7Zu_Z-17" value="删除" style="rounded=0;whiteSpace=wrap;html=1;" vertex="1" parent="1">
          <mxGeometry x="262.92" y="500" width="30" height="30" as="geometry" />
        </mxCell>
        <mxCell id="85pWiXQKtu7gLdS7Zu_Z-24" style="edgeStyle=orthogonalEdgeStyle;rounded=0;orthogonalLoop=1;jettySize=auto;html=1;exitX=0.5;exitY=1;exitDx=0;exitDy=0;entryX=0.5;entryY=0;entryDx=0;entryDy=0;" edge="1" parent="1" source="85pWiXQKtu7gLdS7Zu_Z-19" target="85pWiXQKtu7gLdS7Zu_Z-21">
          <mxGeometry relative="1" as="geometry" />
        </mxCell>
        <mxCell id="85pWiXQKtu7gLdS7Zu_Z-19" value="输入信息" style="rounded=0;whiteSpace=wrap;html=1;" vertex="1" parent="1">
          <mxGeometry x="45.42" y="400" width="65" height="30" as="geometry" />
        </mxCell>
        <mxCell id="85pWiXQKtu7gLdS7Zu_Z-25" style="edgeStyle=orthogonalEdgeStyle;rounded=0;orthogonalLoop=1;jettySize=auto;html=1;exitX=0.5;exitY=1;exitDx=0;exitDy=0;" edge="1" parent="1" source="85pWiXQKtu7gLdS7Zu_Z-21" target="85pWiXQKtu7gLdS7Zu_Z-22">
          <mxGeometry relative="1" as="geometry" />
        </mxCell>
        <mxCell id="85pWiXQKtu7gLdS7Zu_Z-27" value="YES" style="edgeLabel;html=1;align=center;verticalAlign=middle;resizable=0;points=[];" vertex="1" connectable="0" parent="85pWiXQKtu7gLdS7Zu_Z-25">
          <mxGeometry x="-0.45" y="1" relative="1" as="geometry">
            <mxPoint as="offset" />
          </mxGeometry>
        </mxCell>
        <mxCell id="85pWiXQKtu7gLdS7Zu_Z-32" style="edgeStyle=orthogonalEdgeStyle;rounded=0;orthogonalLoop=1;jettySize=auto;html=1;exitX=1;exitY=0.5;exitDx=0;exitDy=0;entryX=1;entryY=0.5;entryDx=0;entryDy=0;" edge="1" parent="1" source="85pWiXQKtu7gLdS7Zu_Z-21" target="85pWiXQKtu7gLdS7Zu_Z-31">
          <mxGeometry relative="1" as="geometry" />
        </mxCell>
        <mxCell id="85pWiXQKtu7gLdS7Zu_Z-33" value="NO" style="edgeLabel;html=1;align=center;verticalAlign=middle;resizable=0;points=[];" vertex="1" connectable="0" parent="85pWiXQKtu7gLdS7Zu_Z-32">
          <mxGeometry x="-0.2103" y="2" relative="1" as="geometry">
            <mxPoint as="offset" />
          </mxGeometry>
        </mxCell>
        <mxCell id="85pWiXQKtu7gLdS7Zu_Z-21" value="确认" style="rhombus;whiteSpace=wrap;html=1;" vertex="1" parent="1">
          <mxGeometry x="42.92" y="460" width="70" height="40" as="geometry" />
        </mxCell>
        <mxCell id="85pWiXQKtu7gLdS7Zu_Z-52" style="edgeStyle=orthogonalEdgeStyle;rounded=0;orthogonalLoop=1;jettySize=auto;html=1;entryX=0.5;entryY=0;entryDx=0;entryDy=0;" edge="1" parent="1" source="85pWiXQKtu7gLdS7Zu_Z-22" target="85pWiXQKtu7gLdS7Zu_Z-31">
          <mxGeometry relative="1" as="geometry" />
        </mxCell>
        <mxCell id="85pWiXQKtu7gLdS7Zu_Z-22" value="更新个人信息" style="rounded=0;whiteSpace=wrap;html=1;" vertex="1" parent="1">
          <mxGeometry x="37.92" y="540" width="80" height="30" as="geometry" />
        </mxCell>
        <mxCell id="85pWiXQKtu7gLdS7Zu_Z-126" style="edgeStyle=orthogonalEdgeStyle;rounded=0;orthogonalLoop=1;jettySize=auto;html=1;entryX=0;entryY=0.5;entryDx=0;entryDy=0;" edge="1" parent="1" source="85pWiXQKtu7gLdS7Zu_Z-31" target="85pWiXQKtu7gLdS7Zu_Z-6">
          <mxGeometry relative="1" as="geometry">
            <Array as="points">
              <mxPoint x="8.059999999999999" y="725" />
              <mxPoint x="8.059999999999999" y="245" />
            </Array>
          </mxGeometry>
        </mxCell>
        <mxCell id="85pWiXQKtu7gLdS7Zu_Z-31" value="退出" style="rounded=0;whiteSpace=wrap;html=1;" vertex="1" parent="1">
          <mxGeometry x="45.42" y="710" width="65" height="30" as="geometry" />
        </mxCell>
        <mxCell id="85pWiXQKtu7gLdS7Zu_Z-45" style="edgeStyle=orthogonalEdgeStyle;rounded=0;orthogonalLoop=1;jettySize=auto;html=1;entryX=0.5;entryY=0;entryDx=0;entryDy=0;" edge="1" parent="1" source="85pWiXQKtu7gLdS7Zu_Z-35" target="85pWiXQKtu7gLdS7Zu_Z-44">
          <mxGeometry relative="1" as="geometry" />
        </mxCell>
        <mxCell id="85pWiXQKtu7gLdS7Zu_Z-35" value="输入所需记录要求" style="shape=parallelogram;perimeter=parallelogramPerimeter;whiteSpace=wrap;html=1;fixedSize=1;" vertex="1" parent="1">
          <mxGeometry x="187.92000000000002" y="575" width="120" height="35" as="geometry" />
        </mxCell>
        <mxCell id="85pWiXQKtu7gLdS7Zu_Z-54" style="edgeStyle=orthogonalEdgeStyle;rounded=0;orthogonalLoop=1;jettySize=auto;html=1;entryX=1;entryY=0.5;entryDx=0;entryDy=0;" edge="1" parent="1" source="85pWiXQKtu7gLdS7Zu_Z-44" target="85pWiXQKtu7gLdS7Zu_Z-31">
          <mxGeometry relative="1" as="geometry">
            <Array as="points">
              <mxPoint x="247.92000000000002" y="725" />
            </Array>
          </mxGeometry>
        </mxCell>
        <mxCell id="85pWiXQKtu7gLdS7Zu_Z-44" value="修改记录成功" style="rounded=0;whiteSpace=wrap;html=1;" vertex="1" parent="1">
          <mxGeometry x="210.42000000000002" y="650" width="75" height="30" as="geometry" />
        </mxCell>
        <mxCell id="85pWiXQKtu7gLdS7Zu_Z-76" style="edgeStyle=orthogonalEdgeStyle;rounded=0;orthogonalLoop=1;jettySize=auto;html=1;entryX=0.5;entryY=0;entryDx=0;entryDy=0;" edge="1" parent="1" source="85pWiXQKtu7gLdS7Zu_Z-61" target="85pWiXQKtu7gLdS7Zu_Z-62">
          <mxGeometry relative="1" as="geometry" />
        </mxCell>
        <mxCell id="85pWiXQKtu7gLdS7Zu_Z-77" style="edgeStyle=orthogonalEdgeStyle;rounded=0;orthogonalLoop=1;jettySize=auto;html=1;entryX=1;entryY=0.5;entryDx=0;entryDy=0;" edge="1" parent="1" source="85pWiXQKtu7gLdS7Zu_Z-61" target="85pWiXQKtu7gLdS7Zu_Z-69">
          <mxGeometry relative="1" as="geometry">
            <Array as="points">
              <mxPoint x="487.92" y="515" />
              <mxPoint x="487.92" y="725" />
            </Array>
          </mxGeometry>
        </mxCell>
        <mxCell id="85pWiXQKtu7gLdS7Zu_Z-61" value="进入准备阶段" style="rounded=0;whiteSpace=wrap;html=1;" vertex="1" parent="1">
          <mxGeometry x="392.92" y="500" width="65" height="30" as="geometry" />
        </mxCell>
        <mxCell id="85pWiXQKtu7gLdS7Zu_Z-78" style="edgeStyle=orthogonalEdgeStyle;rounded=0;orthogonalLoop=1;jettySize=auto;html=1;entryX=0.5;entryY=0;entryDx=0;entryDy=0;" edge="1" parent="1" source="85pWiXQKtu7gLdS7Zu_Z-62" target="85pWiXQKtu7gLdS7Zu_Z-68">
          <mxGeometry relative="1" as="geometry" />
        </mxCell>
        <mxCell id="85pWiXQKtu7gLdS7Zu_Z-79" style="edgeStyle=orthogonalEdgeStyle;rounded=0;orthogonalLoop=1;jettySize=auto;html=1;entryX=1;entryY=0.5;entryDx=0;entryDy=0;" edge="1" parent="1" source="85pWiXQKtu7gLdS7Zu_Z-62" target="85pWiXQKtu7gLdS7Zu_Z-69">
          <mxGeometry relative="1" as="geometry">
            <Array as="points">
              <mxPoint x="487.92" y="590" />
              <mxPoint x="487.92" y="725" />
            </Array>
          </mxGeometry>
        </mxCell>
        <mxCell id="85pWiXQKtu7gLdS7Zu_Z-62" value="进入在线授课阶段" style="rounded=0;whiteSpace=wrap;html=1;" vertex="1" parent="1">
          <mxGeometry x="392.92" y="575" width="65" height="30" as="geometry" />
        </mxCell>
        <mxCell id="85pWiXQKtu7gLdS7Zu_Z-80" style="edgeStyle=orthogonalEdgeStyle;rounded=0;orthogonalLoop=1;jettySize=auto;html=1;entryX=0.5;entryY=0;entryDx=0;entryDy=0;" edge="1" parent="1" source="85pWiXQKtu7gLdS7Zu_Z-68" target="85pWiXQKtu7gLdS7Zu_Z-69">
          <mxGeometry relative="1" as="geometry" />
        </mxCell>
        <mxCell id="85pWiXQKtu7gLdS7Zu_Z-81" style="edgeStyle=orthogonalEdgeStyle;rounded=0;orthogonalLoop=1;jettySize=auto;html=1;entryX=1;entryY=0.5;entryDx=0;entryDy=0;" edge="1" parent="1" source="85pWiXQKtu7gLdS7Zu_Z-68" target="85pWiXQKtu7gLdS7Zu_Z-69">
          <mxGeometry relative="1" as="geometry">
            <Array as="points">
              <mxPoint x="487.92" y="665" />
              <mxPoint x="487.92" y="725" />
            </Array>
          </mxGeometry>
        </mxCell>
        <mxCell id="85pWiXQKtu7gLdS7Zu_Z-68" value="进入结束阶段" style="rounded=0;whiteSpace=wrap;html=1;" vertex="1" parent="1">
          <mxGeometry x="392.92" y="650" width="65" height="30" as="geometry" />
        </mxCell>
        <mxCell id="85pWiXQKtu7gLdS7Zu_Z-84" style="edgeStyle=orthogonalEdgeStyle;rounded=0;orthogonalLoop=1;jettySize=auto;html=1;entryX=1;entryY=0.5;entryDx=0;entryDy=0;" edge="1" parent="1" source="85pWiXQKtu7gLdS7Zu_Z-69" target="85pWiXQKtu7gLdS7Zu_Z-31">
          <mxGeometry relative="1" as="geometry" />
        </mxCell>
        <mxCell id="85pWiXQKtu7gLdS7Zu_Z-69" value="退出与保存教学历史" style="rounded=0;whiteSpace=wrap;html=1;" vertex="1" parent="1">
          <mxGeometry x="392.92" y="710" width="65" height="30" as="geometry" />
        </mxCell>
        <mxCell id="85pWiXQKtu7gLdS7Zu_Z-73" style="edgeStyle=orthogonalEdgeStyle;rounded=0;orthogonalLoop=1;jettySize=auto;html=1;entryX=0.5;entryY=0;entryDx=0;entryDy=0;" edge="1" parent="1" source="85pWiXQKtu7gLdS7Zu_Z-71" target="85pWiXQKtu7gLdS7Zu_Z-61">
          <mxGeometry relative="1" as="geometry" />
        </mxCell>
        <mxCell id="85pWiXQKtu7gLdS7Zu_Z-74" value="YES" style="edgeLabel;html=1;align=center;verticalAlign=middle;resizable=0;points=[];" vertex="1" connectable="0" parent="85pWiXQKtu7gLdS7Zu_Z-73">
          <mxGeometry x="0.32" y="1" relative="1" as="geometry">
            <mxPoint as="offset" />
          </mxGeometry>
        </mxCell>
        <mxCell id="85pWiXQKtu7gLdS7Zu_Z-82" style="edgeStyle=orthogonalEdgeStyle;rounded=0;orthogonalLoop=1;jettySize=auto;html=1;entryX=1;entryY=0.5;entryDx=0;entryDy=0;" edge="1" parent="1" source="85pWiXQKtu7gLdS7Zu_Z-71" target="85pWiXQKtu7gLdS7Zu_Z-69">
          <mxGeometry relative="1" as="geometry">
            <Array as="points">
              <mxPoint x="487.92" y="435" />
              <mxPoint x="487.92" y="725" />
            </Array>
          </mxGeometry>
        </mxCell>
        <mxCell id="85pWiXQKtu7gLdS7Zu_Z-83" value="NO" style="edgeLabel;html=1;align=center;verticalAlign=middle;resizable=0;points=[];" vertex="1" connectable="0" parent="85pWiXQKtu7gLdS7Zu_Z-82">
          <mxGeometry x="-0.6923" y="-2" relative="1" as="geometry">
            <mxPoint as="offset" />
          </mxGeometry>
        </mxCell>
        <mxCell id="85pWiXQKtu7gLdS7Zu_Z-71" value="选择班级&lt;br&gt;与授课名称" style="rhombus;whiteSpace=wrap;html=1;" vertex="1" parent="1">
          <mxGeometry x="387.92" y="400" width="75" height="70" as="geometry" />
        </mxCell>
        <mxCell id="85pWiXQKtu7gLdS7Zu_Z-91" style="edgeStyle=orthogonalEdgeStyle;rounded=0;orthogonalLoop=1;jettySize=auto;html=1;entryX=0.5;entryY=0;entryDx=0;entryDy=0;" edge="1" parent="1" source="85pWiXQKtu7gLdS7Zu_Z-86" target="85pWiXQKtu7gLdS7Zu_Z-88">
          <mxGeometry relative="1" as="geometry" />
        </mxCell>
        <mxCell id="85pWiXQKtu7gLdS7Zu_Z-92" value="YES 特定班级" style="edgeLabel;html=1;align=center;verticalAlign=middle;resizable=0;points=[];" vertex="1" connectable="0" parent="85pWiXQKtu7gLdS7Zu_Z-91">
          <mxGeometry x="0.54" y="3" relative="1" as="geometry">
            <mxPoint x="-3" y="-11" as="offset" />
          </mxGeometry>
        </mxCell>
        <mxCell id="85pWiXQKtu7gLdS7Zu_Z-94" style="edgeStyle=orthogonalEdgeStyle;rounded=0;orthogonalLoop=1;jettySize=auto;html=1;entryX=1;entryY=0.5;entryDx=0;entryDy=0;" edge="1" parent="1" source="85pWiXQKtu7gLdS7Zu_Z-86" target="85pWiXQKtu7gLdS7Zu_Z-88">
          <mxGeometry relative="1" as="geometry">
            <Array as="points">
              <mxPoint x="665.9200000000001" y="435" />
              <mxPoint x="665.9200000000001" y="525" />
            </Array>
          </mxGeometry>
        </mxCell>
        <mxCell id="85pWiXQKtu7gLdS7Zu_Z-95" value="NO 所有班级" style="edgeLabel;html=1;align=center;verticalAlign=middle;resizable=0;points=[];" vertex="1" connectable="0" parent="85pWiXQKtu7gLdS7Zu_Z-94">
          <mxGeometry x="-0.1103" y="1" relative="1" as="geometry">
            <mxPoint y="1" as="offset" />
          </mxGeometry>
        </mxCell>
        <mxCell id="85pWiXQKtu7gLdS7Zu_Z-86" value="选择班级" style="rhombus;whiteSpace=wrap;html=1;" vertex="1" parent="1">
          <mxGeometry x="570.4200000000001" y="400" width="75" height="70" as="geometry" />
        </mxCell>
        <mxCell id="85pWiXQKtu7gLdS7Zu_Z-100" style="edgeStyle=orthogonalEdgeStyle;rounded=0;orthogonalLoop=1;jettySize=auto;html=1;exitX=0.5;exitY=1;exitDx=0;exitDy=0;entryX=0.5;entryY=0;entryDx=0;entryDy=0;" edge="1" parent="1" source="85pWiXQKtu7gLdS7Zu_Z-88" target="85pWiXQKtu7gLdS7Zu_Z-89">
          <mxGeometry relative="1" as="geometry" />
        </mxCell>
        <mxCell id="85pWiXQKtu7gLdS7Zu_Z-88" value="教学历史" style="rounded=0;whiteSpace=wrap;html=1;" vertex="1" parent="1">
          <mxGeometry x="575.4200000000001" y="510" width="65" height="30" as="geometry" />
        </mxCell>
        <mxCell id="85pWiXQKtu7gLdS7Zu_Z-101" style="edgeStyle=orthogonalEdgeStyle;rounded=0;orthogonalLoop=1;jettySize=auto;html=1;exitX=0.5;exitY=1;exitDx=0;exitDy=0;entryX=0.5;entryY=0;entryDx=0;entryDy=0;" edge="1" parent="1" source="85pWiXQKtu7gLdS7Zu_Z-89" target="85pWiXQKtu7gLdS7Zu_Z-96">
          <mxGeometry relative="1" as="geometry">
            <Array as="points">
              <mxPoint x="607.9200000000001" y="630" />
              <mxPoint x="592.9200000000001" y="630" />
            </Array>
          </mxGeometry>
        </mxCell>
        <mxCell id="85pWiXQKtu7gLdS7Zu_Z-102" style="edgeStyle=orthogonalEdgeStyle;rounded=0;orthogonalLoop=1;jettySize=auto;html=1;exitX=0.5;exitY=1;exitDx=0;exitDy=0;entryX=0.5;entryY=0;entryDx=0;entryDy=0;" edge="1" parent="1" source="85pWiXQKtu7gLdS7Zu_Z-89" target="85pWiXQKtu7gLdS7Zu_Z-97">
          <mxGeometry relative="1" as="geometry">
            <Array as="points">
              <mxPoint x="607.9200000000001" y="630" />
              <mxPoint x="622.9200000000001" y="630" />
            </Array>
          </mxGeometry>
        </mxCell>
        <mxCell id="85pWiXQKtu7gLdS7Zu_Z-89" value="选择管理方式" style="rhombus;whiteSpace=wrap;html=1;" vertex="1" parent="1">
          <mxGeometry x="567.9200000000001" y="562.5" width="80" height="60" as="geometry" />
        </mxCell>
        <mxCell id="85pWiXQKtu7gLdS7Zu_Z-108" style="edgeStyle=orthogonalEdgeStyle;rounded=0;orthogonalLoop=1;jettySize=auto;html=1;exitX=0.5;exitY=1;exitDx=0;exitDy=0;entryX=0.5;entryY=0;entryDx=0;entryDy=0;" edge="1" parent="1" source="85pWiXQKtu7gLdS7Zu_Z-96" target="85pWiXQKtu7gLdS7Zu_Z-98">
          <mxGeometry relative="1" as="geometry">
            <Array as="points">
              <mxPoint x="592.9200000000001" y="690" />
              <mxPoint x="607.9200000000001" y="690" />
            </Array>
          </mxGeometry>
        </mxCell>
        <mxCell id="85pWiXQKtu7gLdS7Zu_Z-96" value="查看" style="rounded=0;whiteSpace=wrap;html=1;" vertex="1" parent="1">
          <mxGeometry x="577.9200000000001" y="650" width="30" height="30" as="geometry" />
        </mxCell>
        <mxCell id="85pWiXQKtu7gLdS7Zu_Z-109" style="edgeStyle=orthogonalEdgeStyle;rounded=0;orthogonalLoop=1;jettySize=auto;html=1;exitX=0.5;exitY=1;exitDx=0;exitDy=0;entryX=0.5;entryY=0;entryDx=0;entryDy=0;" edge="1" parent="1" source="85pWiXQKtu7gLdS7Zu_Z-97" target="85pWiXQKtu7gLdS7Zu_Z-98">
          <mxGeometry relative="1" as="geometry">
            <Array as="points">
              <mxPoint x="622.9200000000001" y="690" />
              <mxPoint x="607.9200000000001" y="690" />
            </Array>
          </mxGeometry>
        </mxCell>
        <mxCell id="85pWiXQKtu7gLdS7Zu_Z-97" value="删除" style="rounded=0;whiteSpace=wrap;html=1;" vertex="1" parent="1">
          <mxGeometry x="607.9200000000001" y="650" width="30" height="30" as="geometry" />
        </mxCell>
        <mxCell id="85pWiXQKtu7gLdS7Zu_Z-114" style="edgeStyle=orthogonalEdgeStyle;rounded=0;orthogonalLoop=1;jettySize=auto;html=1;exitX=0.5;exitY=1;exitDx=0;exitDy=0;entryX=0.5;entryY=1;entryDx=0;entryDy=0;" edge="1" parent="1" source="85pWiXQKtu7gLdS7Zu_Z-98" target="85pWiXQKtu7gLdS7Zu_Z-31">
          <mxGeometry relative="1" as="geometry" />
        </mxCell>
        <mxCell id="85pWiXQKtu7gLdS7Zu_Z-98" value="管理历史成功" style="rounded=0;whiteSpace=wrap;html=1;" vertex="1" parent="1">
          <mxGeometry x="570.4200000000001" y="710" width="75" height="30" as="geometry" />
        </mxCell>
        <mxCell id="85pWiXQKtu7gLdS7Zu_Z-139" style="edgeStyle=orthogonalEdgeStyle;rounded=0;orthogonalLoop=1;jettySize=auto;html=1;entryX=0.5;entryY=0;entryDx=0;entryDy=0;" edge="1" parent="1" source="85pWiXQKtu7gLdS7Zu_Z-118" target="85pWiXQKtu7gLdS7Zu_Z-135">
          <mxGeometry relative="1" as="geometry" />
        </mxCell>
        <mxCell id="85pWiXQKtu7gLdS7Zu_Z-118" value="用户注销" style="rounded=0;whiteSpace=wrap;html=1;" vertex="1" parent="1">
          <mxGeometry x="387.92" y="810" width="80" height="40" as="geometry" />
        </mxCell>
        <mxCell id="85pWiXQKtu7gLdS7Zu_Z-137" style="edgeStyle=orthogonalEdgeStyle;rounded=0;orthogonalLoop=1;jettySize=auto;html=1;" edge="1" parent="1" source="85pWiXQKtu7gLdS7Zu_Z-120">
          <mxGeometry relative="1" as="geometry">
            <mxPoint x="818.2" y="350" as="targetPoint" />
          </mxGeometry>
        </mxCell>
        <mxCell id="85pWiXQKtu7gLdS7Zu_Z-120" value="退出登录" style="rounded=0;whiteSpace=wrap;html=1;" vertex="1" parent="1">
          <mxGeometry x="718.2" y="330" width="80" height="40" as="geometry" />
        </mxCell>
        <mxCell id="85pWiXQKtu7gLdS7Zu_Z-135" value="结束" style="rounded=1;whiteSpace=wrap;html=1;" vertex="1" parent="1">
          <mxGeometry x="387.92" y="890" width="80" height="40" as="geometry" />
        </mxCell>
      </root>
    </mxGraphModel>
  </diagram>
</mxfile>
